<?xml version="1.0" encoding="utf-8"?>
<!-- Generator: Adobe Illustrator 23.0.3, SVG Export Plug-In . SVG Version: 6.00 Build 0)  -->
<svg version="1.1" id="Layer_1" xmlns="http://www.w3.org/2000/svg" xmlns:xlink="http://www.w3.org/1999/xlink" x="0px" y="0px"
	 viewBox="0 0 30 30" style="enable-background:new 0 0 30 30;" xml:space="preserve">
<style type="text/css">
	.st0{fill:#22CCE8;}
</style>
<path class="st0" d="M15,29.4c8,0,14.4-6.5,14.4-14.4S23,0.6,15,0.6C7,0.6,0.6,7,0.6,15S7,29.4,15,29.4z M9.3,17.3
	c0.6,0,1.1,0.2,1.6,0.5v-5.1c0,0,0,0,0,0c0,0,0,0,0,0V9.9c0-0.3,0.2-0.5,0.5-0.6l9.6-2.2c0.3-0.1,0.6,0.1,0.7,0.5c0,0,0,0.1,0,0.1
	v2.7c0,0,0,0,0,0v7.2c0,0.1,0,0.1,0,0.2c0,0.1,0,0.2,0,0.3v0c0,1.5-1.2,2.7-2.7,2.7c-1.5,0-2.7-1.2-2.7-2.7c0-1.5,1.2-2.7,2.7-2.7
	c0.6,0,1.1,0.2,1.5,0.5v-4.6l-8.4,1.9v6.7c0,0,0,0,0,0.1c0,0,0,0.1,0,0.1v0c0,1.5-1.2,2.8-2.8,2.8c-1.5,0-2.8-1.2-2.8-2.8
	C6.5,18.5,7.7,17.3,9.3,17.3z"/>
</svg>
